<?xml version="1.0" encoding="utf-8"?>
<!-- Generator: Adobe Illustrator 23.1.1, SVG Export Plug-In . SVG Version: 6.00 Build 0)  -->
<svg version="1.1" id="Layer_1" xmlns="http://www.w3.org/2000/svg" xmlns:xlink="http://www.w3.org/1999/xlink" x="0px" y="0px"
	 viewBox="0 0 208.1 128.9" style="enable-background:new 0 0 208.1 128.9;" xml:space="preserve">
<style type="text/css">
	.st0{fill:#767F5E;}
</style>
<title>Artboard 1</title>
<polygon class="st0" points="173.2,127.6 172.8,127.4 172.2,127.9 171.9,128.4 171.7,128.4 170.9,128.6 171.3,129.1 171.9,128.8 
	173.8,128.1 173.6,127.7 "/>
<path class="st0" d="M207.4,17.6l-0.5-0.9l-0.5-0.5h-0.9l0.1,0.4l-0.6-0.5V15l-0.2-0.5h-1.4l-2.1-6.8l-0.5-0.3l-1.4-0.6H199
	l-0.4,0.4l-1,0.7v0.2l-0.1,0.1L197,8.1l-0.2-0.4V7.5h-0.4H196l-0.5,1.1l-0.7,2l-0.4,1.2v1.1v0.3l-0.1,0.6l-0.2,0.3v1.5l0.4,0.5
	l-0.3,0.8l-0.6,1.1l-0.3,1.1v0.4l-0.2-0.1h-0.5l1.1,3.5l1.7,5.2l-0.7-0.2l-0.1-0.5l-1.6-5.1l-1-3.3h-0.4l-0.1,0.3l-0.3-0.3l-0.1,0.1
	l-0.3,0.5v1.1v0.7l-4.8,1.2l0,0l-0.3,0.1l0,0l-1.5,0.4l-1,0.3h-0.8l-1.3,0.3l-0.7,0.3l-0.6,0.4l-0.5,0.6l-0.6,0.9l-0.7,1l-0.3,0.6
	l-0.1,0.2l-1.4,1.3l0.1,0.7l0.2,0.3l0.5,0.2h0.3v0.1l-0.3,0.5l0.1,0.4l0.3,0.4V32l-0.3,0.2h-0.5l-0.4,0.5l-0.4,0.7l-0.4,0.4L174,34
	l-0.6,0.3l-0.4,0.3h-0.3l-0.5-0.3h-1.5l-0.8,0.1l-0.9,0.3l-1,0.3l-0.8,0.5l0.5,1.6h0.4l0.2,0.6v0.1l-0.2,0.2l-0.5,0.7l-0.1,0.3
	l-0.4,0.4l-0.4,0.3l-0.2,0.3l-0.3,0.2l-0.1,0.1l0,0l-0.2,0.2l-0.1,0.1l0,0l-1.1,1.1l-0.3,0.1l-0.8,0.6l0,0l-1.6,1l-0.9,0.5l-0.8,0.8
	l-0.9,0.8l-0.7,0.2L158,46l-1.2,0.6h-0.4l-0.8-0.7l-1.2,0.2l-0.6-0.3l-0.6-0.3l-0.9,0.1v-0.1l0.4-0.8l0.5-0.4v-1.2l0.3-0.3l0.3-0.1
	v-0.9l0.3-0.6h0.1v0.2h0.1h0.3l0.5-0.3v-2.2l-0.7-1.9l-0.5-2.1l-0.6-0.8l-0.7-0.5L152,34l-0.9,0.4l-0.4,1.2l-0.6,0.8l-0.2,0.1
	l-0.3-0.1c-0.2-0.1-0.5-0.3-0.5-0.3s0.1-0.8,0.1-1.1l0.8-0.3l0.2-0.8l0.1-0.5l0.6-0.4l-0.1-2.5l-0.4-0.6l-0.2-0.1l-0.2-0.4l0.1-0.1
	l0.4,0.1l0.1-0.6l-0.6-0.5l-0.3-0.7H149l-1-0.3l-1.3-0.8H146l-0.1,0.1h-0.1L145,26l-0.8,0.5l-0.7,0.6l0.1,1l0.3,0.1l0.4,0.1
	l-0.4,0.1l-0.6,0.1l-0.4,0.5l-0.1,0.5l0.1,0.3L143,31l-0.7,0.4v-0.8l0.3-0.6l0.2-0.6l-0.3-0.3l-0.6,0.3l-0.2,1l-0.6,0.3l-0.4,0.5
	v0.3l0.1,0.2l-0.1,0.4l-0.5,0.1v0.4l0.2,0.5l-0.3,1.4l-0.4,1l0.2,1.1l0.1,0.2l-0.2,0.5l-0.1,0.2l-0.1,0.7l0.8,1.4L141,41l0.3,1
	l-0.2,1.1l-0.2,1.3l-0.6,1.2v0.5l-0.7,0.7l-0.6,0.4l-0.4,0.4h-0.2l-0.3-0.2l-0.7-0.2l-0.2-0.7l-0.3-0.9l-0.3-0.4l-0.3-0.5l-0.2-1.1
	l0,0v-0.9l-0.3-1l-0.2-1.5l-0.2-0.5l0.2-0.7l0.2-0.6l0.3-0.7l-0.1-0.8l-0.1-0.7l0.1-0.4l0.5-0.6v-0.7l-0.1-0.2l0.1-0.6l-0.1-0.9
	l0.6-1.3l0.7-1.6v-0.6l-0.1-0.4l-0.2,0.1l-0.2,0.1l-1,1.4l-0.6,0.9l-0.5,0.5l-0.2,0.5l-0.5,0.2l-0.2,0.3H134v-0.2l0.3-0.6l0.4-1
	l0.4-0.4l0.1-0.3l0,0l0.8-1.8l0.2-0.9l0.4-0.9l0,0l0.2,0.4h0.1h0.2l0.9-0.5l0.3,0.3l0.2,0.1l0.4-0.4l0.2-0.6l0.5-0.2l1.6-0.2
	l0.4-0.6h1.1l1.4,0.3h0.5l0.7-0.3h0.6l0.4-0.1l0.8,0.1l0.3,0.1l0.3-0.1v0.1h0.9l0.4-0.4v-0.1c0-0.4-0.1-0.5-0.2-0.5
	s-0.2-0.2-0.3-0.4V24l-1,0.1l-0.1,0.5l0.3,0.1l0.1,0.2l-0.2-0.2l-0.3-0.1l-0.7-0.7v-1.8l-0.5-0.2L146,22l-0.2,0.2l-1.4,0.4l-0.4,0.1
	l-0.6-0.2l0,0v-1.4h-0.1h-0.4l-0.6,0.3l-1,0.4l-1.6,0.1l-0.8,0.3L138,23l-0.3,0.2h-0.3l-0.2,0.1l-0.3-0.1l-0.4-0.4l-0.1,0.1
	l-0.2,0.2h-0.8l-0.6-0.5l-0.4-0.7l-0.4-0.3l-0.8-0.2h-0.5l-0.3-0.3l-0.9,0.8l-0.1,0.2l0,0v-0.4l0.6-0.8l0.1-0.5l0.5-0.2l0.3-0.7
	l0.9-0.2l0.1-0.4l-0.4-0.4l-1.2,0.1l-1,0.6l-0.5,0.5l-0.2,0.4l-0.5,0.2l-0.5,0.7v0.2l-1,0.5l-0.5,0.4l-1.4,0.3l-0.2,0.2v0.2
	l-0.7,0.5l-0.7,0.2l-0.2,0.1l-0.1,0.1h-0.1l-0.2-0.3l-0.4,0.1h-0.3l-0.3,0.2l0,0l0.1-0.3l0.4-0.7l0.4-0.4l-0.6-0.5l-0.6,0.2
	l-0.6,0.4l-1.7,0.7l-0.6,0.1l-0.6-0.1l-0.1-0.1l0.9-0.6h0.3l1-1.2l0.5-0.2l0.5-0.9l0.5-0.8l0.7-0.6l1.1-0.5l2.1-0.9l1-0.4l0,0
	l0.5,0.4l0.6-0.2l0.8-0.5l1.3-1.3l-0.3-0.3l-0.6,0.2l-1.2,0.9l-0.5,0.2l-0.5,0.6l0.2-0.7l-1.3,0.1l-0.1,0.2l-0.4-0.7l-2.2,0.1
	l-0.1,0.1h-0.1l-0.1-0.2l-0.2-0.5h-0.1l-0.7,0.1l-0.7,0.7l-0.3,0.2h-0.6l-0.5-0.2V16l-0.5-0.1l-0.1,0.1l-0.4-0.2L120,15l-0.5,0.2
	l-0.1,0.2l-0.4-0.1l-1.2-0.5l-1-0.6h-0.6l-0.3-0.3l-0.6,0.2l-0.3,0.3v0.2h-0.9v-0.5l-1.5-0.1l-0.1-0.3h-1.2l-0.3-0.3l-0.3-1.4
	l-0.2-1.3l-0.5-0.2l-0.6-0.1l-0.2,0.1l-0.1,1.9h-6.8l-6.5-0.1L91,12l-6.1-0.3l-5.1-0.5l0,0l-7.2-0.7l-6.7-0.8l-6.7-0.9l-7.4-1.2
	l-4.2-0.8L40,5.2l-1,5.1l0.8,1.7l-0.3,1.1l0.4,1.1l0.7,0.3l1.1,2.5l0.6,0.7l0.1,0.3l0.8,0.3l0.1,0.3l-1.6,4.1v0.7l0.6,0.8h0.1h0.3
	l1.1-0.7l0.1-0.1l0.2,0.1v1.1l0.7,3l0.7,0.6l0.2,0.1l0.4,0.5L46,29.6l0.2,0.9l0.4,0.3L47,30h0.5l0.8,0.4l0.6-0.2h0.9l0.9,0.4
	l0.7-0.1l0.1-0.7l0.5-0.1l0.2,0.2l0.1,0.8l0.3,0.2l-1.9,12l-10.5-2l0,0l-10.9-2.5l2-7.7l0.2-0.9l0.5-1.3l-0.2-0.4h-0.6L31,27.8
	l0.1-0.3l0.1-0.7l1-1.2l0.4-0.3l0.3-0.3l0.3-0.8l0.9-1.3l0.8-1L35,21l-0.8-0.5l-0.4-1L37,4.8L33.4,4l-5.2-1.3l-4.6-1.3l-2-0.4
	l-2.2-0.6L18.3,0h-0.1l-0.3,0.3L18,0.4l0.6,1.2l0.2,0.5l-0.4,0.8v0.6l0.1,0.3l-0.2,0.4L18.5,5l0.2,0.2v0.1h-0.1L18.5,5l-0.3-0.6
	l-0.3-0.3V3.8l0.5-0.1l-0.1-0.6l-0.1-0.4l-0.7,0.4l-0.3,0.3V4h-0.3l-0.8-0.2l-0.7-0.3l-0.7-0.1l-1-0.5L13,2.4l-0.6-0.6l-0.6-0.7
	L11.1,1l-0.6,2.3L11,4v1.8l-0.1,0.7l0.4,1.7l0.4,0.4l-0.8,0.1v1.1l0.5,0.2l-0.3,0.7l-0.7,0.1l-0.1,0.8l0.4,0.6l-0.4,0.1L9.8,14
	l-0.7,2.3l-0.7,1.5L7.1,21l-1.5,3.1l-2.3,3.6l-0.2,2l0.1,2.7l-0.4,1.1v1.6l-1.2,2.6L1,38.5v0.2L0.5,39l-0.3,1L0,40.8l0.6,1l0.4,1
	l0.3,0.8L1.2,45l-0.4,0.8L0.6,47l-0.2,0.9l0.4,0.9l0.6,1L2,51l0.3,0.9v0.7l-0.1,0.2v0.5l1.3,1.4l-0.1,0.5l-0.2,0.5L3,56.1v2l0.5,0.8
	L4,59.6l0.6,0.1l0.2,0.5l-0.2,0.7l-0.4,0.3H3.8l-0.2,1.1L3.8,63l0.7,1l0.4,1.2l0.3,1.1L5.5,67l1.1,1.9l0.1,0.7l0.4,0.2v0.4l-0.2,0.5
	l-0.5,2.1L7,73.6l1,0.1l1,0.4l1,0.5h0.6l0.6,0.6l0.6,1.1l0.3,0.6l0.9,0.5l1.1,0.2l0.3,0.4l0.1,0.6l-0.3,0.2l0.1,0.4l0.8,0.2h0.7
	l0.6-0.3l0.8,0.8l0.2,0.5l0.6,0.9l0.1,0.7v2.2l0.1,0.5l2.4,0.3l4.5,0.6l3,0.3l-0.5,0.4l-0.1,0.5l0.2,0.3l4.3,2.4l2.8,1.7l3.4,2
	l3.9,2.3l2.8,0.6l5.5,0.6l0,0l3.8,0.5l0.3-2.3l6.7,0.6l0,0h0.2l0.6,0.6l0.3,1.1l1.1,0.5l0.3,0.7l1.6,1.8l0.4,0.4l1.1,0.4l0.3,0.5
	l0.3,0.2l0.1,0.6l0.7,1.4v1.9l0.5,1.1l1.7,1.8l1.1,0.4l0.4,0.4v0.2l1,0.6l0.4,0.1l0.4,0.3l0.7,0.2l0.6-0.6l1-1.5l0.2-0.8l0.5-0.7
	l0.8-0.3l1-0.4l0.7,0.5l1.7,0.1l1.5,0.2l0.5,0.4v0.3l0.6,0.7l1.4,1.2l0.1,0.4l0.4,0.4l0.2,1l1.2,2.7v0.5l1,0.6l0.8,1.5l0.8,1
	l0.7,0.2l0.3,0.5l-0.3,1v0.1l0.2,0.3l0.2,0.1v0.6l-0.2,0.2l0.2,0.7l0.7,0.4l0.3,1.5l0.5,1l1.8,0.8l1,0.2l1,0.7l0.8,0.1l0.2-0.1
	l1.2,0.2l1.4,0.9l0.8-0.5l0.3-0.4v-0.1l0.4-0.1v-0.4l0.1-0.8l-0.6-1.6l-0.2-1.4l0.1-1.1l0.4-1.5l1-1.5l1.2-1.7l0,0l1.3-0.8l0.4-0.3
	l1.4-0.8l1.3-0.6l1.2-0.7l0.6-0.5l1.3-1.2l0.3-0.2l0.5-0.3l0.6-0.5v-0.4l2.2-1l1.4-0.4l0,0l0.9-0.3h2.7l2.4,0.8l1.6,0.3l0.8-0.3
	l0.7,0.2l0.9,0.3l0.3-0.7l-1-0.3l-0.5,0.1l-0.5-0.3c0,0,0-0.1,0.1-0.1l0.6-0.2l0.4,0.3h0.1l0.3-0.2l0.7,0.1l0.3,0.4l0.1,0.6l1.1,0.1
	l0.3,0.3l-0.1,0.2l-0.4,0.3l0.5,0.5l2,0.8l0.9-0.3l0.2-0.5l0.6-0.2l0.3-0.3l0.1,0.1l0.1,0.5l-0.6,0.2l0.4,0.4l0.9-0.4l0.5-0.7
	l0.5-0.3l-0.7-0.1l0.1-0.3v-0.2l0.4-0.1l0.1-0.2l0,0c0,0.3,0,0.5,0.1,0.7l0.1,0.1h0.1c0.1,0,0.6,0.1,0.9,0.1l0.9,0.4l0.3,0.4h0.7
	l0.3,0.3l0.1-0.1l0.5-0.8v-0.5h-0.1h-0.2l-0.8-0.7l-1.3-0.2l-0.6-0.5l0.2-0.4l0.5,0.1l0.1-0.4l-0.2-0.1h0.5l0.5-0.8l-0.3-0.5
	l-0.1-0.8l-0.5,0.1l-0.5,0.6l-0.1,0.5l-0.5-0.1l-0.1-0.3l0.4-0.4l0.4-0.7l0,0l0.3-0.2l0.5-0.9l0.4,0.1l1.5-0.4l0.4,0.1l0.4,0.2h1.3
	l0,0h0.5l0.3,0.1l0.3-0.7l0.3-0.9l0.3,0.1l0.7,1.2v0.1l-0.9,0.6l1,0.1l1.4-0.6l0,0h0.2l1.3-0.5l1.4-0.1l0.9-0.1l1.7,0.4l1.8,0.8
	l0.4,0.3l0.6,0.2l0.3,0.4l0.1,0.8l0.9-0.3h0.9l0.8-0.4l0.8-0.8h0.7l0.2-0.4l-0.2-0.2v-0.3l0.8-0.2h0.5l0.7,0.3l0.9,0.3l0.6,0.9
	l0.5,0.2l0.2,0.7l0.8,0.3l0.4,0.6l0.4,0.1l1.1,0.3l0.3,0.6l0.7,0.7v2.1L164,112l0.1,0.6l0.3,1.1l0.5,1.1l0.4-0.2l0.4-1.2l-0.6-0.2
	l0.1-0.1l0.9,0.2v0.2l-0.7,1.2l-0.6,0.6l0.9,0.9l0.6,0.7l0.7,1.2l0.6,0.8l0.5,1.2l0.6,0.1l0.3-0.4l0.2,0.1l0.6,0.8l0.2,0.9l0.8,1.1
	l0.2-0.4h0.7l0.8,0.5l0.7,1.1l0.2,0.7l0.1,0.7l0.3,0.3l0.3,0.1l0.6-0.3l0.3-0.3h0.9l0.7-0.4l0.2-0.3v0.1l-0.7,1.1l-1,0.9l-0.8,0.4
	l-0.7,0.4l0.5,0.4l0.7-0.5l1.2-1l0.9-0.9l0.6-1.5l0.2-0.4v-1l-0.2,0.2l-0.2,0.2l-0.2,0.6l-0.1-0.5l0.1-0.5l-0.1-0.3l0.5-0.3l0.1-0.9
	l-0.1-0.3l-0.1-2.7l-0.3-1.7l-1-1.8l-0.8-1.3l-0.6-1.2l-0.6-0.6l-0.6-1.6l0.1-0.2l0.3-0.4l-0.4-0.8l-0.9-0.8l-1.1-1.2l-0.6-1.5
	l-1.2-2.1l-0.8-2.2l-0.5-1.6h0.7l-0.2-1.6l0.5-2.3l0.3-1l-0.1-0.5l0.8-1.5l-0.1-0.4l0.4-0.3l1.2-1.3l-0.2-0.6l0.6-0.1l0.8-0.7
	l0.4-0.2l0.5-0.7l0.6-0.7l0.4-0.8l0.6-0.1l0.3-0.6l0.4-0.2l0.1-1.5l0.6-1.4l1.2-1.2l1.1-0.3l1.2-0.1l0.1-0.6l0.4-1.4l0.8-1l1.4-1.2
	l1.1-0.5L185,76l0.3,0.1h0.4l0.7-1.2l0.6-1.1l-0.4,0.1l-0.3,0.1l-0.4,0.4l-0.1-0.3h-0.9l0.4-1.3l-0.2-0.3l0.7,0.1l0.9-0.4l0.3-0.7
	l0.1-0.4l0.6-0.3l0.1-1.1h0.2v0.1l0.3,0.5l0.1,1.4V72l-0.3,0.1l-0.7,0.6l-0.8,0.8l0.6,0.1l0.3-0.3l0.6-0.5l0.9-0.4v-0.9l-0.1-1.1
	l-0.6-1.5L188,69l-0.1-0.3l-0.5-0.5l-0.8-1.5l-0.4-1l0,0l-0.1-0.1l-0.1-0.1l0,0l-0.8-1.4l-1.4,0.4l-0.2-0.1l0.5-0.3V64l-0.2-0.6
	L184,63v-0.4l-0.5-0.3v-0.1h0.6l0.1-0.5l-0.3-0.2l0.1-0.4l-0.3-0.3l0.1-1l-0.3-0.4l-0.7-0.1l-0.1-0.5l0.3-0.6v-0.1l-0.3-0.4v-0.5
	l-0.6-0.4l-0.5-1.2l0.3-1.3l-0.1-0.6l-0.2-0.2c0.1-0.1,0.2-0.3,0.3-0.5c0-0.1,0.1-0.3,0-0.4l0.4-0.3l0.2-0.1l-0.2,0.2l-0.3,0.9
	l0.1,0.3l0.4,0.1l0.1,1l-0.5,0.2l0.1,1.1l0.3-0.1l0.2-0.3l0.1,0.1l-0.3,0.2l-0.1,0.9l0.7,0.9l0.7,0.1l-0.3,0.1l0.3,0.7l0.1,0.5
	l0.4,0.6l0.1-0.1c0.2-0.2,0.2-0.3,0.2-0.4c0-0.3-0.1-0.5-0.2-0.7l-0.2-0.6l0.1-0.1l0.7,0.9l0.2,0.1v0.3l-0.2,0.7l-0.4,1l-0.1,1.3
	l0.4,1.3l0.2-0.1l0.5-0.5l0.4-1.2l-0.1-0.7l0.1-1l0.7-0.9l0.2-0.7l0,0l0.5-1l-0.1-1l0,0v-0.1V56l0,0l-0.5-1.7l-0.3,0.1l-0.7-0.4
	l-0.4-1.1l-0.2-0.4l0.8,0.4l0.8,0.1v0.2l-0.2,0.2l0.1,0.8h0.4l0.6-0.7l0.2-1.1l0.6-0.9l0.7-1.5l0.3-1.3l0,0l-0.1-0.2v-2.2l-0.4-0.9
	l-0.1,0.1l-0.2,0.2h-0.4l0.6-0.5l0,0l0.1,0.1l1-0.3l1.3-0.4l0.6-0.2l2.5-1.9l0.9-1l-1.2-0.5l-0.4,0.4l-0.6,0.6l-1.7,0.9h-0.5
	l-0.4-0.2l-0.4,0.2l-0.5,0.6l-0.3,0.3h-0.2v-0.1l0.5-0.4l-0.2-0.4l1.7-1.6l0.4-0.4l0.1,0.1l0.7-0.4l1.2-0.3l1.7-0.7l0.8-0.3l0.6-0.5
	l0.2-0.3h0.3l0.6-0.3l0,0l0.7-0.3l-0.1-0.6l0.1-0.2l0.5-0.3l0.1,0.5l-0.1,0.3l-0.6,0.3v0.6L199,38l-0.2,0.3l0.4,0.4l0.6-0.3l0.8-0.3
	l-0.2-0.1l-0.5-0.4h-0.4l0,0L200,37l0.9-0.4l1.1-0.4l-0.1-0.7l-0.2-0.7l-0.5-0.6l-0.5-0.2h-0.5l-0.2,0.2l0.4,0.5l0.4-0.2l0.3,0.2
	l0.2,0.5l-0.3,0.3l-0.4,0.2l-0.7-0.1l-0.9-1.3l-0.6-0.6h-0.6l-0.1,0.1l-0.3-0.4v-0.2l0.6-1.3l-0.8-1.2l-1,0.5l-0.3,0.6L195,32
	l-3.8,1l-0.1-0.1l0.1-0.3v-0.7l2.7-0.7l0.5-0.1l0.4-0.6l0.8-0.4l0.2-0.3l0.2-0.7l0.3,0.1l0.1,0.7l0.8,0.4l0.3-1.6v-0.9l0.3-0.3
	l-0.2-0.7l0.5-0.6l0.3,0.3l0.4-0.1l1.3-0.7l0.1-0.6l0.6-0.1l0.4-0.7v-0.4l-0.1-0.6l0.2-0.3l-0.1-0.4l-0.2-0.2l0.2-0.1l0.4,0.7
	l0.3-0.1V23v0.3l-0.2-0.2l-0.5,0.5l0.5,0.9l0.6-0.3v-0.1l-0.2-0.6h0.5l0.1-0.7l0.2-0.2l-0.4-0.3l0.1-0.2l0.3-0.2l-0.3,0.5l0.5,0.5
	h0.1c0.1,0,0.4,0,0.4-0.2c0-0.1,0-0.2,0-0.4l0.3-0.2l-0.1-0.2h0.4l1.1-1.3l0.7-0.7l0.5-0.2l0.5-1.2L207.4,17.6z M203.9,21.1
	l-0.4,0.1l0.1-0.2L203.9,21.1C203.9,21,203.9,21.1,203.9,21.1z M184.9,72.4L184.9,72.4L184.9,72.4L184.9,72.4z M100.7,118.4
	l-0.5-0.4l0.1-0.3l0.9-0.1l0.9-1.3h0.2l-0.6,0.6l-0.8,1.3l-0.4,0.9L100.7,118.4z M153.4,99.6L153.4,99.6l0.5,0.8l0.2,0.2h-0.2
	l-0.3-0.3l-0.5-0.8L153.4,99.6z M165.5,100.9l-0.1-0.5h0.3v0.6L165.5,100.9z M100.4,126.2l-0.2-1.4l-0.4-1.6l-0.2-0.5l0.2-1l0.1-0.4
	l-0.1,0.5l0.1,1.6l0.6,1.6l0.1,1.6L100.4,126.2z"/>
<polygon class="st0" points="201.5,37.3 201.4,37.7 200.9,37.9 200.6,38.3 201.9,38.2 202.3,38.1 202,37.3 "/>
<path class="st0" d="M16.8,2.7l0.1-0.1l0.2-0.2V2.2h0.1c-0.3,0.4-0.3,0.5-0.3,0.5v0.1H17h0.1h0.1l0.4-0.1l0.2-0.6l0-0.1l0.3-0.4
	l-0.3-0.5h-0.7l-0.2,0.2l-0.1-0.2l-0.7,0.1L16.3,2L16.8,2.7z"/>
<polygon class="st0" points="7.1,75.7 7.4,76.3 7.5,76.6 8.5,76.7 8.5,76.2 8.2,75.7 "/>
<polygon class="st0" points="13.6,79.9 13.1,80 13.1,80.1 13.2,80.5 13.6,81 13.8,81.3 14.3,81.5 14.5,81 14.2,80.4 "/>
<polygon class="st0" points="8.8,75.6 8.3,75.8 8.6,76.3 9,76.7 10.2,76.8 10.6,76.4 9.7,76.1 "/>
<path class="st0" d="M13,82.2h-0.3v0.7c0,0.2,0.1,0.4,0.2,0.5l0.3,0.3l0.6-0.1L13.4,83L13,82.2z"/>
</svg>
